<?xml version="1.0" encoding="UTF-8" standalone="no"?>
<!DOCTYPE svg PUBLIC "-//W3C//DTD SVG 1.1//EN" "http://www.w3.org/Graphics/SVG/1.1/DTD/svg11.dtd">
<svg width="100%" height="100%" viewBox="0 0 1664 719" version="1.1" xmlns="http://www.w3.org/2000/svg" xmlns:xlink="http://www.w3.org/1999/xlink" xml:space="preserve" xmlns:serif="http://www.serif.com/" style="fill-rule:evenodd;clip-rule:evenodd;stroke-linejoin:round;stroke-miterlimit:2;">
    <g transform="matrix(1,0,0,1,-128.404,-164)">
        <g transform="matrix(1,0,0,1,-75.0393,-65.3251)">
            <g transform="matrix(1,0,0,1,52.4039,87)">
                <g transform="matrix(1,0,0,1,-296.537,62.6863)">
                    <g>
                        <g transform="matrix(380,0,0,304,551.644,562.852)">
                            <path d="M0.22,-0.435C0.223,-0.384 0.215,-0.328 0.188,-0.284C0.164,-0.245 0.126,-0.219 0.082,-0.21C0.015,-0.196 -0.046,-0.224 -0.09,-0.274C-0.154,-0.346 -0.177,-0.451 -0.191,-0.544C-0.205,-0.642 -0.21,-0.75 -0.172,-0.843C-0.146,-0.907 -0.099,-0.962 -0.029,-0.977C0,-0.983 0.032,-0.979 0.061,-0.971C0.065,-0.97 0.068,-0.969 0.072,-0.97C0.076,-0.971 0.08,-0.976 0.082,-0.978C0.084,-0.982 0.087,-0.984 0.091,-0.985L0.123,-0.991C0.131,-0.993 0.134,-0.986 0.135,-0.979L0.154,-0.821C0.155,-0.814 0.153,-0.807 0.145,-0.806L0.121,-0.801C0.116,-0.8 0.109,-0.799 0.105,-0.803C0.098,-0.81 0.094,-0.822 0.09,-0.83C0.072,-0.869 0.039,-0.934 -0.014,-0.924C-0.035,-0.919 -0.052,-0.904 -0.061,-0.884C-0.075,-0.85 -0.074,-0.806 -0.073,-0.769C-0.072,-0.714 -0.068,-0.659 -0.06,-0.605C-0.048,-0.519 -0.036,-0.426 -0.002,-0.345C0.014,-0.309 0.043,-0.268 0.088,-0.277C0.151,-0.29 0.158,-0.378 0.159,-0.429L0.22,-0.435Z" style="fill:white;fill-rule:nonzero;"/>
                        </g>
                        <g transform="matrix(380,0,0,304,693.587,562.852)">
                            <path d="M0.116,-0.283C0.045,-0.272 -0.019,-0.299 -0.061,-0.357C-0.117,-0.435 -0.138,-0.535 -0.148,-0.628C-0.16,-0.725 -0.16,-0.83 -0.124,-0.922C-0.096,-0.991 -0.042,-1.044 0.033,-1.056C0.102,-1.066 0.164,-1.037 0.207,-0.983C0.267,-0.905 0.283,-0.798 0.291,-0.703C0.3,-0.604 0.301,-0.494 0.258,-0.403C0.231,-0.343 0.183,-0.294 0.116,-0.283ZM0.105,-0.335C0.124,-0.337 0.137,-0.354 0.146,-0.369C0.169,-0.412 0.161,-0.481 0.16,-0.528C0.158,-0.605 0.154,-0.683 0.147,-0.76C0.142,-0.812 0.135,-0.865 0.119,-0.914C0.111,-0.939 0.102,-0.972 0.082,-0.989C0.071,-0.999 0.055,-1.003 0.04,-1.001C0.026,-0.998 0.014,-0.991 0.004,-0.981C-0.008,-0.967 -0.013,-0.946 -0.016,-0.928C-0.023,-0.883 -0.02,-0.834 -0.018,-0.789C-0.015,-0.717 -0.01,-0.646 -0.002,-0.576C0.005,-0.512 0.011,-0.442 0.038,-0.383C0.051,-0.357 0.072,-0.329 0.105,-0.335Z" style="fill:white;fill-rule:nonzero;"/>
                        </g>
                        <g transform="matrix(380,0,0,304,865.589,562.852)">
                            <path d="M-0.053,-0.424C-0.068,-0.616 -0.083,-0.807 -0.098,-0.999C-0.099,-1.015 -0.107,-1.028 -0.122,-1.034C-0.129,-1.037 -0.137,-1.043 -0.138,-1.052L-0.14,-1.073C-0.14,-1.082 -0.133,-1.086 -0.126,-1.086L0.077,-1.11L0.163,-0.761L0.204,-1.122L0.41,-1.138C0.417,-1.138 0.423,-1.136 0.423,-1.128L0.424,-1.106C0.424,-1.097 0.417,-1.089 0.41,-1.085C0.397,-1.076 0.39,-1.062 0.39,-1.046C0.399,-0.853 0.407,-0.661 0.416,-0.469C0.417,-0.453 0.424,-0.439 0.438,-0.432C0.445,-0.428 0.452,-0.422 0.453,-0.413L0.454,-0.391C0.454,-0.383 0.447,-0.38 0.44,-0.379L0.279,-0.367C0.273,-0.367 0.268,-0.369 0.268,-0.376L0.266,-0.399C0.266,-0.408 0.272,-0.415 0.279,-0.42C0.291,-0.429 0.298,-0.444 0.297,-0.46C0.287,-0.657 0.277,-0.853 0.266,-1.05C0.238,-0.82 0.212,-0.59 0.187,-0.359L0.144,-0.355C0.092,-0.578 0.038,-0.8 -0.018,-1.023C-0.004,-0.826 0.01,-0.629 0.024,-0.433C0.025,-0.418 0.033,-0.404 0.047,-0.397C0.054,-0.394 0.062,-0.388 0.063,-0.379L0.064,-0.357C0.065,-0.349 0.058,-0.346 0.051,-0.345L-0.068,-0.331C-0.074,-0.33 -0.08,-0.332 -0.08,-0.339L-0.082,-0.362C-0.083,-0.371 -0.076,-0.378 -0.07,-0.383C-0.058,-0.393 -0.051,-0.408 -0.053,-0.424Z" style="fill:white;fill-rule:nonzero;"/>
                        </g>
                        <g transform="matrix(380,0,0,304,1063.2,562.852)">
                            <path d="M-0,-0.475C-0.007,-0.668 -0.015,-0.86 -0.022,-1.053C-0.022,-1.069 -0.03,-1.082 -0.044,-1.089C-0.052,-1.093 -0.059,-1.099 -0.06,-1.108L-0.061,-1.13C-0.061,-1.138 -0.054,-1.141 -0.046,-1.142L0.157,-1.152L0.228,-0.798L0.285,-1.156L0.491,-1.158C0.497,-1.158 0.503,-1.155 0.503,-1.148L0.503,-1.125C0.503,-1.117 0.495,-1.11 0.489,-1.105C0.475,-1.097 0.467,-1.084 0.467,-1.068C0.468,-0.875 0.468,-0.682 0.469,-0.49C0.469,-0.474 0.476,-0.46 0.49,-0.452C0.497,-0.448 0.503,-0.44 0.503,-0.432L0.503,-0.41C0.503,-0.402 0.497,-0.399 0.49,-0.399L0.329,-0.397C0.322,-0.397 0.317,-0.4 0.317,-0.407L0.317,-0.43C0.317,-0.438 0.324,-0.445 0.33,-0.45C0.343,-0.459 0.351,-0.473 0.35,-0.488C0.348,-0.686 0.346,-0.883 0.344,-1.08C0.306,-0.852 0.27,-0.624 0.236,-0.395L0.193,-0.393C0.15,-0.62 0.105,-0.845 0.058,-1.071C0.064,-0.874 0.071,-0.676 0.077,-0.479C0.077,-0.464 0.084,-0.45 0.098,-0.442C0.105,-0.438 0.112,-0.432 0.113,-0.423L0.113,-0.401C0.114,-0.393 0.107,-0.39 0.1,-0.389L-0.02,-0.383C-0.026,-0.383 -0.031,-0.386 -0.032,-0.393L-0.033,-0.416C-0.033,-0.424 -0.026,-0.431 -0.019,-0.436C-0.007,-0.445 0,-0.459 -0,-0.475Z" style="fill:white;fill-rule:nonzero;"/>
                        </g>
                        <g transform="matrix(380,0,0,304,1260.8,562.852)">
                            <path d="M0.413,-0.565C0.411,-0.516 0.397,-0.465 0.36,-0.431C0.325,-0.398 0.278,-0.385 0.231,-0.386C0.184,-0.387 0.137,-0.403 0.103,-0.437C0.069,-0.471 0.053,-0.518 0.053,-0.566C0.054,-0.733 0.055,-0.9 0.056,-1.068C0.056,-1.084 0.048,-1.097 0.034,-1.105C0.027,-1.11 0.02,-1.117 0.02,-1.125L0.02,-1.147C0.02,-1.155 0.027,-1.158 0.034,-1.158L0.211,-1.156C0.217,-1.155 0.223,-1.152 0.223,-1.145L0.222,-1.123C0.222,-1.114 0.214,-1.107 0.207,-1.103C0.194,-1.095 0.186,-1.082 0.186,-1.066C0.183,-0.897 0.181,-0.728 0.179,-0.558C0.178,-0.51 0.194,-0.457 0.251,-0.455C0.316,-0.453 0.334,-0.518 0.335,-0.571L0.348,-1.061C0.348,-1.077 0.341,-1.091 0.327,-1.099C0.32,-1.104 0.313,-1.111 0.313,-1.12L0.314,-1.141C0.314,-1.15 0.321,-1.152 0.328,-1.152L0.454,-1.147C0.461,-1.146 0.467,-1.143 0.466,-1.136L0.466,-1.113C0.465,-1.105 0.457,-1.098 0.45,-1.094C0.436,-1.087 0.428,-1.073 0.428,-1.058L0.413,-0.565Z" style="fill:white;fill-rule:nonzero;"/>
                        </g>
                        <g transform="matrix(380,0,0,304,1419.63,562.852)">
                            <path d="M0.394,-0.71L0.413,-1.029C0.413,-1.045 0.406,-1.06 0.393,-1.069C0.387,-1.074 0.379,-1.081 0.38,-1.09L0.381,-1.112C0.382,-1.12 0.389,-1.122 0.396,-1.122L0.524,-1.109C0.53,-1.109 0.536,-1.105 0.535,-1.098L0.534,-1.076C0.533,-1.067 0.526,-1.061 0.519,-1.057C0.504,-1.05 0.495,-1.038 0.494,-1.022C0.48,-0.804 0.466,-0.585 0.452,-0.367C0.452,-0.357 0.446,-0.352 0.436,-0.353L0.412,-0.355C0.402,-0.356 0.394,-0.363 0.391,-0.373C0.327,-0.557 0.261,-0.74 0.192,-0.922L0.172,-0.469C0.172,-0.454 0.178,-0.439 0.191,-0.43C0.198,-0.425 0.205,-0.418 0.204,-0.409L0.203,-0.388C0.203,-0.379 0.196,-0.377 0.189,-0.377L0.07,-0.385C0.063,-0.385 0.058,-0.389 0.058,-0.396L0.059,-0.419C0.059,-0.427 0.067,-0.434 0.074,-0.437C0.087,-0.445 0.095,-0.459 0.096,-0.474C0.103,-0.667 0.11,-0.859 0.117,-1.052C0.118,-1.068 0.111,-1.082 0.097,-1.091C0.09,-1.095 0.083,-1.102 0.084,-1.111L0.084,-1.133C0.085,-1.141 0.092,-1.144 0.099,-1.143L0.218,-1.136C0.223,-1.135 0.232,-1.135 0.236,-1.132C0.24,-1.129 0.243,-1.122 0.244,-1.118L0.394,-0.71Z" style="fill:white;fill-rule:nonzero;"/>
                        </g>
                        <g transform="matrix(380,0,0,304,1580.32,562.852)">
                            <path d="M0.263,-0.42C0.261,-0.404 0.267,-0.389 0.28,-0.379C0.286,-0.374 0.293,-0.367 0.292,-0.358L0.29,-0.336C0.29,-0.328 0.283,-0.326 0.276,-0.327L0.109,-0.347C0.103,-0.347 0.098,-0.351 0.098,-0.358L0.1,-0.381C0.1,-0.389 0.108,-0.395 0.115,-0.399C0.129,-0.406 0.137,-0.419 0.138,-0.435C0.152,-0.626 0.166,-0.818 0.179,-1.01C0.18,-1.026 0.174,-1.041 0.161,-1.05C0.154,-1.055 0.147,-1.063 0.148,-1.072L0.149,-1.093C0.15,-1.102 0.157,-1.103 0.164,-1.103L0.34,-1.082C0.347,-1.081 0.352,-1.077 0.351,-1.07L0.35,-1.048C0.349,-1.039 0.341,-1.033 0.333,-1.03C0.319,-1.023 0.31,-1.011 0.309,-0.995C0.294,-0.803 0.278,-0.611 0.263,-0.42Z" style="fill:white;fill-rule:nonzero;"/>
                        </g>
                        <g transform="matrix(380,0,0,304,1659.17,562.852)">
                            <path d="M0.443,-0.979C0.422,-0.777 0.401,-0.575 0.38,-0.373C0.378,-0.357 0.384,-0.342 0.396,-0.332C0.402,-0.327 0.409,-0.319 0.408,-0.31L0.405,-0.288C0.405,-0.28 0.398,-0.278 0.39,-0.279L0.225,-0.305C0.218,-0.306 0.213,-0.31 0.214,-0.317L0.216,-0.34C0.217,-0.348 0.225,-0.354 0.232,-0.357C0.246,-0.364 0.254,-0.377 0.256,-0.392C0.275,-0.595 0.294,-0.797 0.313,-1L0.289,-1.003C0.274,-1.006 0.258,-1.003 0.247,-0.991C0.229,-0.972 0.222,-0.939 0.216,-0.915C0.214,-0.909 0.209,-0.908 0.203,-0.909L0.182,-0.912C0.173,-0.913 0.163,-0.918 0.164,-0.928L0.176,-1.07C0.177,-1.081 0.185,-1.085 0.196,-1.084C0.209,-1.082 0.223,-1.078 0.235,-1.074C0.258,-1.068 0.281,-1.061 0.304,-1.058L0.503,-1.027C0.515,-1.026 0.528,-1.026 0.54,-1.026C0.552,-1.025 0.566,-1.026 0.578,-1.023C0.586,-1.022 0.593,-1.018 0.592,-1.009L0.575,-0.864C0.574,-0.855 0.568,-0.851 0.559,-0.853L0.538,-0.856C0.533,-0.857 0.525,-0.859 0.523,-0.865C0.521,-0.876 0.52,-0.888 0.519,-0.898C0.517,-0.917 0.514,-0.94 0.504,-0.956C0.497,-0.968 0.482,-0.973 0.468,-0.975L0.443,-0.979Z" style="fill:white;fill-rule:nonzero;"/>
                        </g>
                        <g transform="matrix(380,0,0,304,1805.38,562.852)">
                            <path d="M0.459,-0.536L0.425,-0.292C0.423,-0.276 0.429,-0.261 0.441,-0.25C0.447,-0.244 0.453,-0.236 0.451,-0.228L0.448,-0.206C0.447,-0.198 0.44,-0.196 0.433,-0.198L0.268,-0.232C0.261,-0.233 0.257,-0.237 0.257,-0.244L0.26,-0.267C0.261,-0.275 0.269,-0.281 0.277,-0.284C0.291,-0.29 0.3,-0.302 0.302,-0.317L0.333,-0.562L0.263,-0.91C0.259,-0.927 0.25,-0.944 0.234,-0.954C0.227,-0.958 0.222,-0.964 0.223,-0.973L0.226,-0.997C0.227,-1.004 0.232,-1.007 0.238,-1.006L0.419,-0.971C0.427,-0.969 0.434,-0.964 0.433,-0.955L0.43,-0.932C0.429,-0.924 0.418,-0.922 0.412,-0.922C0.402,-0.921 0.387,-0.917 0.385,-0.904C0.384,-0.901 0.385,-0.897 0.386,-0.893L0.436,-0.643L0.537,-0.841C0.54,-0.848 0.543,-0.856 0.544,-0.864C0.546,-0.878 0.535,-0.89 0.523,-0.897C0.518,-0.9 0.51,-0.906 0.511,-0.914L0.514,-0.939C0.515,-0.947 0.521,-0.949 0.529,-0.948L0.667,-0.917C0.675,-0.915 0.683,-0.911 0.682,-0.903L0.678,-0.878C0.677,-0.869 0.667,-0.866 0.66,-0.865C0.641,-0.861 0.622,-0.851 0.613,-0.834L0.459,-0.536Z" style="fill:white;fill-rule:nonzero;"/>
                        </g>
                        <g transform="matrix(1,0,0,1,0,24.2002)">
                            <g transform="matrix(380,0,0,304,466.014,812.852)">
                                <path d="M0.01,-0.814L0,-0.846C-0.002,-0.851 -0.004,-0.857 -0.005,-0.863C-0.006,-0.867 -0.001,-0.871 0.001,-0.873L0.085,-0.932C0.086,-0.933 0.088,-0.933 0.089,-0.934C0.095,-0.935 0.098,-0.932 0.1,-0.927C0.179,-0.721 0.256,-0.514 0.331,-0.306C0.334,-0.298 0.338,-0.288 0.343,-0.282C0.349,-0.277 0.358,-0.273 0.366,-0.27C0.372,-0.268 0.378,-0.264 0.379,-0.257L0.382,-0.236C0.383,-0.229 0.381,-0.224 0.374,-0.223L0.208,-0.186C0.201,-0.185 0.194,-0.186 0.193,-0.195L0.19,-0.216C0.189,-0.225 0.196,-0.233 0.203,-0.238C0.213,-0.246 0.221,-0.257 0.219,-0.27C0.218,-0.274 0.217,-0.277 0.216,-0.281L0.181,-0.376L0.049,-0.345L0.043,-0.244L0.043,-0.234C0.045,-0.221 0.06,-0.213 0.07,-0.208C0.077,-0.205 0.087,-0.199 0.088,-0.192L0.091,-0.17C0.093,-0.162 0.086,-0.157 0.079,-0.155L-0.025,-0.129C-0.032,-0.127 -0.043,-0.127 -0.044,-0.136L-0.048,-0.161C-0.05,-0.169 -0.046,-0.175 -0.04,-0.18C-0.027,-0.192 -0.021,-0.21 -0.02,-0.228C-0.012,-0.423 -0.002,-0.619 0.01,-0.814ZM0.069,-0.669L0.054,-0.41L0.159,-0.435L0.069,-0.669Z" style="fill:rgb(255,0,97);fill-rule:nonzero;"/>
                            </g>
                            <g transform="matrix(380,0,0,304,631.893,812.852)">
                                <path d="M0.078,-0.61L0.109,-0.348C0.111,-0.333 0.118,-0.32 0.132,-0.314C0.14,-0.311 0.147,-0.305 0.148,-0.297L0.15,-0.275C0.151,-0.267 0.146,-0.263 0.139,-0.262L-0.017,-0.232C-0.023,-0.231 -0.028,-0.233 -0.029,-0.24L-0.032,-0.262C-0.033,-0.271 -0.027,-0.279 -0.022,-0.284C-0.01,-0.295 -0.006,-0.31 -0.007,-0.326C-0.032,-0.516 -0.056,-0.706 -0.081,-0.897C-0.082,-0.912 -0.091,-0.924 -0.105,-0.93C-0.113,-0.932 -0.12,-0.938 -0.121,-0.947L-0.124,-0.968C-0.125,-0.976 -0.119,-0.98 -0.112,-0.982L0.026,-1.009C0.086,-1.02 0.155,-1.023 0.21,-0.992C0.257,-0.964 0.28,-0.914 0.285,-0.861C0.295,-0.766 0.245,-0.69 0.161,-0.649C0.185,-0.643 0.21,-0.633 0.23,-0.616C0.249,-0.599 0.262,-0.574 0.271,-0.55L0.324,-0.402C0.328,-0.39 0.333,-0.375 0.341,-0.365C0.347,-0.357 0.357,-0.352 0.366,-0.348C0.369,-0.347 0.371,-0.344 0.371,-0.34L0.374,-0.312C0.375,-0.305 0.371,-0.301 0.364,-0.3L0.264,-0.284C0.255,-0.282 0.248,-0.287 0.244,-0.296L0.145,-0.55C0.139,-0.567 0.13,-0.592 0.114,-0.603C0.103,-0.61 0.09,-0.612 0.078,-0.61ZM0.037,-0.951L0.071,-0.667C0.102,-0.673 0.133,-0.688 0.149,-0.715C0.17,-0.75 0.167,-0.798 0.163,-0.837C0.159,-0.869 0.153,-0.919 0.124,-0.94C0.099,-0.957 0.065,-0.956 0.037,-0.951Z" style="fill:rgb(255,0,97);fill-rule:nonzero;"/>
                            </g>
                            <g transform="matrix(380,0,0,304,791.092,812.852)">
                                <path d="M0.166,-1.037C0.182,-0.834 0.198,-0.631 0.213,-0.428C0.214,-0.413 0.222,-0.4 0.235,-0.393C0.242,-0.389 0.249,-0.383 0.25,-0.375L0.252,-0.353C0.252,-0.345 0.247,-0.341 0.239,-0.34L0.083,-0.32C0.077,-0.319 0.072,-0.322 0.071,-0.329L0.069,-0.352C0.068,-0.36 0.074,-0.368 0.08,-0.373C0.092,-0.383 0.098,-0.398 0.096,-0.413C0.079,-0.616 0.061,-0.819 0.043,-1.022L0.02,-1.018C0.005,-1.016 -0.009,-1.009 -0.016,-0.995C-0.029,-0.972 -0.03,-0.939 -0.031,-0.913C-0.032,-0.907 -0.036,-0.904 -0.042,-0.903L-0.062,-0.9C-0.071,-0.899 -0.08,-0.901 -0.081,-0.911L-0.095,-1.052C-0.096,-1.063 -0.09,-1.07 -0.08,-1.071C-0.068,-1.073 -0.054,-1.073 -0.042,-1.073C-0.02,-1.073 0.003,-1.073 0.025,-1.076L0.212,-1.1C0.224,-1.103 0.236,-1.106 0.247,-1.109C0.258,-1.112 0.271,-1.116 0.282,-1.117C0.29,-1.118 0.296,-1.115 0.297,-1.107L0.307,-0.961C0.308,-0.953 0.303,-0.947 0.294,-0.946L0.274,-0.944C0.27,-0.943 0.262,-0.943 0.259,-0.948C0.255,-0.958 0.252,-0.969 0.25,-0.979C0.244,-0.996 0.238,-1.018 0.226,-1.031C0.217,-1.041 0.202,-1.042 0.19,-1.04L0.166,-1.037Z" style="fill:rgb(255,0,97);fill-rule:nonzero;"/>
                            </g>
                            <g transform="matrix(380,0,0,304,1003.36,812.852)">
                                <path d="M0.224,-0.704L0.354,-0.71C0.356,-0.71 0.367,-0.711 0.37,-0.708C0.373,-0.706 0.374,-0.7 0.374,-0.697C0.374,-0.691 0.373,-0.685 0.373,-0.679C0.371,-0.662 0.371,-0.644 0.371,-0.627L0.374,-0.49C0.374,-0.483 0.377,-0.475 0.382,-0.47C0.386,-0.467 0.388,-0.462 0.389,-0.457L0.389,-0.439C0.389,-0.431 0.383,-0.424 0.377,-0.42C0.362,-0.409 0.342,-0.403 0.325,-0.396C0.298,-0.385 0.268,-0.38 0.238,-0.378C0.048,-0.368 0,-0.571 -0.007,-0.723C-0.011,-0.789 -0.007,-0.856 0.006,-0.921C0.017,-0.98 0.041,-1.038 0.078,-1.085C0.108,-1.122 0.149,-1.153 0.198,-1.156C0.222,-1.157 0.247,-1.151 0.269,-1.143C0.274,-1.141 0.281,-1.138 0.287,-1.139C0.291,-1.139 0.295,-1.141 0.299,-1.143C0.303,-1.145 0.306,-1.146 0.311,-1.147L0.331,-1.147C0.34,-1.148 0.346,-1.144 0.346,-1.135L0.35,-0.974C0.35,-0.965 0.346,-0.959 0.337,-0.959L0.315,-0.958C0.315,-0.958 0.305,-0.958 0.303,-0.96C0.298,-0.965 0.295,-0.984 0.293,-0.991C0.281,-1.037 0.256,-1.103 0.198,-1.1C0.177,-1.099 0.158,-1.087 0.146,-1.07C0.123,-1.037 0.124,-0.982 0.122,-0.944C0.119,-0.88 0.118,-0.815 0.121,-0.75C0.123,-0.695 0.127,-0.638 0.136,-0.584C0.141,-0.551 0.147,-0.517 0.159,-0.486C0.165,-0.47 0.173,-0.452 0.187,-0.442C0.198,-0.434 0.211,-0.431 0.224,-0.432C0.259,-0.433 0.267,-0.466 0.266,-0.495L0.263,-0.601C0.263,-0.613 0.262,-0.629 0.255,-0.64C0.248,-0.65 0.235,-0.656 0.224,-0.659C0.218,-0.661 0.212,-0.665 0.212,-0.672L0.212,-0.692C0.211,-0.7 0.217,-0.704 0.224,-0.704Z" style="fill:rgb(255,0,97);fill-rule:nonzero;"/>
                            </g>
                            <g transform="matrix(380,0,0,304,1168.12,812.852)">
                                <path d="M0.153,-1.062L0.148,-1.095C0.147,-1.101 0.146,-1.107 0.146,-1.113C0.146,-1.117 0.15,-1.12 0.154,-1.121L0.244,-1.16C0.245,-1.161 0.247,-1.161 0.248,-1.161C0.254,-1.161 0.257,-1.157 0.258,-1.152C0.306,-0.932 0.351,-0.71 0.394,-0.489C0.396,-0.48 0.398,-0.47 0.403,-0.463C0.407,-0.456 0.416,-0.45 0.423,-0.446C0.428,-0.442 0.434,-0.437 0.434,-0.43L0.434,-0.408C0.434,-0.401 0.431,-0.397 0.424,-0.397L0.256,-0.399C0.248,-0.399 0.242,-0.402 0.242,-0.411L0.242,-0.432C0.243,-0.442 0.251,-0.448 0.259,-0.451C0.27,-0.457 0.279,-0.466 0.279,-0.479C0.279,-0.483 0.278,-0.486 0.278,-0.49L0.257,-0.592L0.123,-0.592L0.103,-0.493C0.102,-0.49 0.101,-0.487 0.102,-0.484C0.102,-0.47 0.115,-0.459 0.124,-0.452C0.13,-0.447 0.139,-0.44 0.139,-0.432L0.139,-0.41C0.139,-0.402 0.132,-0.398 0.125,-0.398L0.02,-0.396C0.012,-0.396 0.002,-0.398 0.002,-0.407L0.001,-0.433C0.001,-0.441 0.006,-0.446 0.012,-0.45C0.027,-0.459 0.035,-0.475 0.039,-0.492C0.075,-0.682 0.114,-0.872 0.153,-1.062ZM0.19,-0.905L0.137,-0.654L0.244,-0.655L0.19,-0.905Z" style="fill:rgb(255,0,97);fill-rule:nonzero;"/>
                            </g>
                            <g transform="matrix(380,0,0,304,1334,812.852)">
                                <path d="M0.056,-0.486C0.06,-0.678 0.064,-0.871 0.068,-1.064C0.068,-1.079 0.061,-1.093 0.048,-1.102C0.041,-1.106 0.035,-1.114 0.035,-1.122L0.035,-1.144C0.035,-1.152 0.042,-1.155 0.049,-1.155L0.215,-1.148C0.222,-1.148 0.227,-1.145 0.227,-1.137L0.226,-1.115C0.226,-1.106 0.219,-1.1 0.212,-1.096C0.198,-1.088 0.191,-1.074 0.19,-1.059C0.185,-0.855 0.179,-0.652 0.173,-0.449L0.216,-0.446C0.237,-0.445 0.26,-0.451 0.275,-0.466C0.295,-0.485 0.304,-0.515 0.309,-0.541C0.311,-0.548 0.313,-0.56 0.316,-0.565C0.318,-0.568 0.323,-0.568 0.325,-0.568L0.349,-0.566C0.356,-0.566 0.363,-0.563 0.363,-0.555L0.355,-0.38L0.035,-0.396C0.025,-0.396 0.018,-0.401 0.018,-0.411L0.019,-0.429C0.019,-0.438 0.027,-0.445 0.034,-0.448C0.048,-0.456 0.056,-0.47 0.056,-0.486Z" style="fill:rgb(255,0,97);fill-rule:nonzero;"/>
                            </g>
                            <g transform="matrix(380,0,0,304,1466.48,812.852)">
                                <path d="M0.069,-0.467C0.078,-0.659 0.087,-0.851 0.096,-1.044C0.097,-1.059 0.091,-1.073 0.078,-1.083C0.071,-1.087 0.065,-1.095 0.065,-1.104L0.066,-1.125C0.067,-1.133 0.073,-1.136 0.081,-1.135L0.246,-1.122C0.253,-1.121 0.258,-1.118 0.257,-1.111L0.256,-1.088C0.256,-1.08 0.248,-1.073 0.241,-1.069C0.228,-1.062 0.22,-1.049 0.219,-1.034C0.207,-0.831 0.196,-0.628 0.184,-0.424L0.227,-0.421C0.248,-0.419 0.271,-0.423 0.287,-0.437C0.308,-0.456 0.317,-0.486 0.324,-0.511C0.325,-0.518 0.327,-0.529 0.331,-0.535C0.333,-0.538 0.338,-0.537 0.34,-0.537L0.364,-0.535C0.371,-0.534 0.378,-0.53 0.377,-0.522L0.365,-0.348L0.045,-0.377C0.036,-0.378 0.029,-0.383 0.029,-0.393L0.03,-0.412C0.03,-0.42 0.038,-0.427 0.045,-0.43C0.06,-0.437 0.068,-0.451 0.069,-0.467Z" style="fill:rgb(255,0,97);fill-rule:nonzero;"/>
                            </g>
                            <g transform="matrix(380,0,0,304,1598.96,812.852)">
                                <path d="M0.398,-0.297L0.055,-0.344C0.048,-0.345 0.044,-0.349 0.044,-0.357L0.046,-0.378C0.046,-0.387 0.057,-0.395 0.064,-0.399C0.076,-0.406 0.08,-0.419 0.081,-0.432C0.096,-0.624 0.11,-0.816 0.125,-1.008C0.126,-1.023 0.12,-1.038 0.108,-1.048C0.102,-1.053 0.096,-1.06 0.096,-1.069L0.098,-1.092C0.098,-1.099 0.105,-1.101 0.111,-1.1L0.384,-1.064C0.393,-1.063 0.403,-1.062 0.412,-1.061L0.435,-1.059C0.441,-1.058 0.453,-1.056 0.452,-1.048L0.438,-0.905C0.438,-0.904 0.437,-0.894 0.434,-0.892C0.431,-0.89 0.422,-0.892 0.421,-0.892L0.401,-0.895C0.393,-0.896 0.389,-0.903 0.388,-0.911C0.387,-0.933 0.383,-0.958 0.374,-0.979C0.364,-1.001 0.339,-1.011 0.316,-1.014L0.249,-1.023L0.226,-0.748L0.25,-0.745C0.26,-0.744 0.273,-0.743 0.281,-0.749C0.294,-0.759 0.301,-0.782 0.306,-0.796L0.314,-0.811C0.316,-0.813 0.32,-0.811 0.323,-0.811L0.346,-0.808C0.354,-0.806 0.359,-0.802 0.358,-0.793L0.341,-0.611C0.34,-0.603 0.335,-0.6 0.328,-0.601L0.304,-0.604C0.3,-0.605 0.296,-0.606 0.294,-0.609C0.29,-0.615 0.289,-0.626 0.288,-0.633C0.285,-0.647 0.282,-0.668 0.271,-0.678C0.264,-0.685 0.252,-0.688 0.242,-0.689L0.221,-0.692L0.195,-0.385L0.263,-0.376C0.281,-0.373 0.303,-0.372 0.317,-0.385C0.34,-0.406 0.352,-0.446 0.363,-0.474C0.366,-0.483 0.372,-0.49 0.383,-0.489L0.404,-0.485C0.412,-0.484 0.417,-0.479 0.416,-0.471L0.398,-0.297Z" style="fill:rgb(255,0,97);fill-rule:nonzero;"/>
                            </g>
                            <g transform="matrix(380,0,0,304,1740.54,812.852)">
                                <path d="M0.24,-0.619L0.21,-0.358C0.208,-0.342 0.213,-0.327 0.225,-0.316C0.231,-0.311 0.236,-0.303 0.235,-0.295L0.233,-0.273C0.232,-0.265 0.226,-0.263 0.219,-0.264L0.063,-0.291C0.056,-0.292 0.052,-0.296 0.053,-0.303L0.055,-0.326C0.056,-0.334 0.063,-0.34 0.07,-0.343C0.084,-0.35 0.092,-0.363 0.093,-0.378C0.113,-0.569 0.134,-0.76 0.154,-0.951C0.155,-0.967 0.15,-0.981 0.138,-0.991C0.131,-0.997 0.125,-1.005 0.126,-1.013L0.128,-1.035C0.129,-1.043 0.136,-1.045 0.143,-1.044L0.282,-1.02C0.344,-1.009 0.41,-0.986 0.454,-0.938C0.491,-0.896 0.504,-0.841 0.496,-0.786C0.484,-0.694 0.42,-0.637 0.328,-0.627C0.35,-0.612 0.372,-0.594 0.387,-0.571C0.402,-0.548 0.408,-0.52 0.411,-0.493L0.428,-0.333C0.429,-0.319 0.431,-0.303 0.437,-0.29C0.441,-0.281 0.449,-0.273 0.456,-0.266C0.459,-0.263 0.46,-0.26 0.459,-0.256L0.456,-0.229C0.455,-0.222 0.45,-0.219 0.443,-0.22L0.344,-0.24C0.334,-0.242 0.329,-0.25 0.328,-0.26L0.291,-0.538C0.288,-0.558 0.285,-0.584 0.273,-0.6C0.265,-0.61 0.253,-0.617 0.24,-0.619ZM0.279,-0.961L0.247,-0.677C0.276,-0.672 0.31,-0.674 0.332,-0.695C0.361,-0.721 0.369,-0.77 0.373,-0.807C0.377,-0.841 0.382,-0.89 0.359,-0.92C0.34,-0.944 0.308,-0.955 0.279,-0.961Z" style="fill:rgb(255,0,97);fill-rule:nonzero;"/>
                            </g>
                            <g transform="matrix(380,0,0,304,1891.01,812.852)">
                                <path d="M0.358,-0.494L0.32,-0.251C0.318,-0.235 0.322,-0.22 0.334,-0.209C0.339,-0.203 0.344,-0.195 0.343,-0.187L0.34,-0.165C0.338,-0.157 0.332,-0.155 0.325,-0.157L0.17,-0.194C0.164,-0.195 0.16,-0.199 0.161,-0.206L0.164,-0.229C0.165,-0.237 0.173,-0.242 0.18,-0.245C0.194,-0.251 0.202,-0.263 0.204,-0.278L0.24,-0.522L0.182,-0.87C0.179,-0.887 0.171,-0.905 0.156,-0.915C0.15,-0.919 0.145,-0.926 0.146,-0.934L0.15,-0.958C0.15,-0.965 0.155,-0.968 0.161,-0.966L0.331,-0.929C0.339,-0.927 0.345,-0.922 0.344,-0.913L0.34,-0.89C0.339,-0.882 0.33,-0.88 0.324,-0.88C0.313,-0.879 0.299,-0.875 0.297,-0.863C0.297,-0.859 0.297,-0.855 0.298,-0.852L0.339,-0.601L0.44,-0.798C0.443,-0.804 0.446,-0.812 0.447,-0.82C0.449,-0.834 0.439,-0.846 0.428,-0.853C0.423,-0.857 0.416,-0.863 0.417,-0.871L0.421,-0.896C0.422,-0.903 0.427,-0.906 0.434,-0.904L0.565,-0.871C0.572,-0.869 0.58,-0.865 0.578,-0.857L0.574,-0.832C0.573,-0.824 0.564,-0.82 0.556,-0.819C0.538,-0.816 0.52,-0.806 0.511,-0.789L0.358,-0.494Z" style="fill:rgb(255,0,97);fill-rule:nonzero;"/>
                            </g>
                        </g>
                    </g>
                </g>
                <g>
                    <path d="M626.778,217.632C626.671,220.854 626.61,224.144 626.914,227.36C627.126,229.596 627.597,231.806 628.433,233.896C629.164,235.727 630.152,237.441 631.482,238.906C633.945,241.606 637.256,243.135 640.942,242.799C647.886,242.168 650.977,237.217 650.389,230.541C649.711,222.839 643.607,216.703 637.855,212.192L631.084,206.871C626.729,203.487 622.121,199.914 618.688,195.565C614.676,190.495 611.58,184.331 610.945,177.831C610.488,173.155 611.714,168.586 614.704,164.927C618.784,159.878 625.162,157.75 631.434,157.176C633.325,157.003 636.162,156.799 638.157,156.979C639.183,157.072 642.434,157.363 643.816,157.242C645.843,157.063 647.823,156.311 649.105,154.663C649.638,154.002 650.092,153.278 650.515,152.541C655.782,154.821 656.061,165.171 656.448,169.735C656.849,174.465 657.196,179.64 655.671,184.209C655.445,184.906 655.037,185.904 654.333,186.323C653.238,180.765 650.737,175.387 647.047,171.075C643.476,166.882 638.594,163.583 632.863,164.106C628.962,164.462 625.991,166.643 625.336,170.627C625.123,171.937 625.169,173.416 625.292,174.722C625.469,176.617 626.348,178.503 627.318,180.093C628.593,182.187 630.146,184.116 631.841,185.882C633.769,187.891 635.871,189.775 638.036,191.524C642.711,195.398 647.451,199.278 651.956,203.348C654.172,205.351 656.282,207.55 658.163,209.871C661.612,214.213 664.399,219.517 664.868,225.122C665.371,231.127 663.17,236.703 658.898,240.918C653.877,245.808 647.102,248.12 640.229,248.748C634.399,249.281 628.239,248.381 623.069,245.532C618.028,242.765 614.566,238.204 613.996,232.403C614.997,226.925 618.238,222.406 622.979,219.523C624.167,218.777 625.452,218.103 626.778,217.632Z" style="fill:rgb(255,0,97);fill-rule:nonzero;"/>
                    <path d="M661.931,182.151C660.645,179.726 660.039,176.992 659.811,174.273C659.6,171.763 659.441,169.198 659.539,166.682C659.54,166.674 660.061,161.265 660.063,161.258C660.348,159.702 660.948,155.774 663.2,155.588L716.786,151.563C720.712,151.298 721.706,158.689 722.199,161.302C722.199,161.305 722.885,167.067 722.885,167.07C723.113,170.511 723.25,174.347 722.008,177.639C719.047,170.393 714.712,161.91 707.13,158.573C705.944,158.015 704.671,157.69 703.351,157.784C702.333,157.857 701.303,158.143 700.561,158.895C699.781,159.686 699.338,160.873 699.071,161.911C698.44,164.614 698.391,167.632 698.594,170.406L700.195,192.32L701.561,210.198L702.798,227.145C703.001,229.918 703.36,233.088 704.931,235.479C705.834,236.853 706.99,238.353 708.317,239.376C709.518,240.302 710.851,241.082 712.213,241.742L681.905,244.015C683.73,242.286 685.888,240.269 686.92,237.92C688.28,234.887 688.637,231.516 688.383,228.227L684.322,175.591C684.029,171.796 683.984,167.447 682.681,163.817C682.312,162.787 681.629,161.126 680.645,160.39C679.8,159.757 678.738,159.628 677.721,159.708C676.405,159.811 675.194,160.309 674.098,161.023C672.819,161.856 671.671,162.88 670.643,164.004C669.481,165.274 668.461,166.67 667.561,168.134C667.55,168.153 665.005,172.881 664.996,172.901C663.655,175.817 662.535,178.993 661.931,182.151Z" style="fill:rgb(255,0,97);fill-rule:nonzero;"/>
                    <path d="M775.395,207.749L774.525,185.264C774.023,175.621 774.238,164.475 771.133,155.224C770.663,153.783 769.919,151.891 768.852,150.71C768.185,149.971 767.514,149.236 766.813,148.53L786.786,147.514L785.586,149.214C783.891,151.869 783.014,154.938 782.973,158.083C782.93,161.36 782.941,164.66 783.003,167.937C783.066,171.238 783.138,174.54 783.22,177.841C783.435,183.987 783.709,190.139 784.013,196.281L784.367,203.421C784.814,212.446 784.778,223.073 779.521,230.829C775.12,237.195 767.361,239.447 759.987,239.867C740.259,240.992 732.232,225.212 731.158,207.632L728.389,163.833C728.108,159.491 727.439,154.25 724.142,151.074L747.21,149.636C744.602,153.037 744.079,157.517 744.328,161.664C744.511,164.705 744.673,167.75 744.817,170.792L745.701,189.523C745.851,192.702 746.024,195.883 746.215,199.06C746.649,206.267 746.593,214.321 748.633,221.308C749.344,223.742 750.279,226.385 751.693,228.493C754.221,232.2 758.153,234.1 762.626,233.849C771.27,233.364 774.326,225 775.128,217.562C775.499,214.328 775.565,210.998 775.395,207.749Z" style="fill:rgb(255,0,97);fill-rule:nonzero;"/>
                    <path d="M809.549,162.267L812.054,220.572C812.144,222.064 812.368,224.148 813.04,225.575C813.608,226.782 814.826,227.201 816.088,227.149C824.211,226.818 829.279,220.268 832.105,213.28C836.616,202.083 837.022,189.263 836.61,177.357C836.403,171.373 835.85,164.668 833.068,159.247C830.264,153.803 825.062,151.149 819.024,151.385C816.931,151.467 813.022,151.354 811.387,153.1C810.447,154.105 809.908,155.304 809.709,156.659C809.454,158.391 809.477,160.562 809.549,162.267ZM796.134,236.82C797.017,234.455 797.859,231.805 798.019,229.283C798.154,227.15 798.24,225.014 798.292,222.877C798.435,216.693 798.203,210.477 797.92,204.301C797.528,195.718 797.009,187.127 796.26,178.568L794.854,162.503C794.621,159.789 794.404,156.605 793.369,154.066C792.339,151.518 790.697,149.268 788.667,147.424L822.107,145.989C833.599,145.549 844.887,149.596 849.824,160.804C851.67,165.004 852.337,169.653 852.474,174.206C853.166,197.231 846.654,221.42 823.716,231.596C816.224,234.921 807.844,236.343 799.7,236.714C799.106,236.741 798.512,236.768 797.918,236.796C797.324,236.823 796.729,236.831 796.134,236.82Z" style="fill:rgb(255,0,97);fill-rule:nonzero;"/>
                    <path d="M882.971,144.174C881.606,147.681 880.759,151.391 880.592,155.156C880.452,158.29 880.329,161.433 880.254,164.57C880.189,167.284 880.15,170.004 880.133,172.719C880.156,178.692 880.219,184.676 880.353,190.648C880.638,203.385 879.407,219.066 883.76,231.247C884.066,232.126 884.447,232.981 884.886,233.802L864.385,234.3C865.355,232.042 866.186,229.481 866.392,227.036C866.607,224.477 866.74,221.911 866.844,219.345C867.207,212.29 867.19,205.183 867.005,198.123C866.862,192.648 866.733,187.167 866.514,181.695C866.4,178.817 866.265,175.936 866.107,173.06C865.719,164.8 866.078,154.764 862.863,147.004L861.947,144.684L882.971,144.174Z" style="fill:rgb(255,0,97);fill-rule:nonzero;"/>
                    <path d="M928.222,228.455C939.824,228.351 941.886,209.126 942.849,200.931C943.7,193.73 943.923,186.374 943.89,179.129C943.841,168.188 942.502,148.049 927.376,148.186C912.25,148.323 911.275,168.483 911.424,179.423C911.61,193.103 910.911,215.011 921.643,225.532C923.42,227.277 925.685,228.478 928.222,228.455ZM928.156,234.315C917.709,234.41 909.212,228.925 904.099,219.965C897.274,207.994 895.858,193.179 895.614,179.674C895.37,166.123 898.717,150.745 912.478,144.953C917.154,143.012 922.293,142.373 927.323,142.327C941.872,142.195 954.081,148.844 957.882,163.508C959.396,169.203 959.701,175.277 959.702,181.144C959.702,188.173 959.077,195.24 957.785,202.15C956.666,208.135 954.886,214.171 951.949,219.532C946.999,228.582 938.603,234.221 928.156,234.315Z" style="fill:rgb(255,0,97);fill-rule:nonzero;"/>
                    <path d="M1018.72,164.164C1018.45,170.049 1018.28,175.962 1018.19,181.853C1018.04,190.816 1018.05,199.787 1018.17,208.75C1018.24,214.158 1018.04,219.751 1018.52,225.136C1018.63,226.289 1018.78,227.443 1019.03,228.572C1019.43,230.343 1020.11,232.002 1021.09,233.53L1004.51,233.281C1005.97,231.286 1006.97,228.978 1007.3,226.52C1007.62,224.187 1007.89,221.845 1008.08,219.499C1008.59,213.334 1008.73,207.115 1008.82,200.933C1008.94,192.342 1008.93,183.736 1008.69,175.147L1008.24,159.026C1008.12,154.824 1007.86,149.918 1005.43,146.332C1004.74,145.314 1003.89,144.409 1002.96,143.607L1026.79,143.969C1028.36,151.15 1030.22,158.292 1032.27,165.349L1042.51,199.622L1060.8,144.76L1084.56,145.503C1082.87,146.834 1081.27,148.478 1080.49,150.524C1079.41,153.454 1078.86,156.738 1078.66,159.843L1077.89,170.194C1077.07,180.942 1076.4,191.721 1076.05,202.495C1075.74,211.934 1074.44,223.447 1077.26,232.61C1077.52,233.429 1077.86,234.225 1078.25,234.988L1059.54,234.408C1060.67,232.358 1061.34,230.098 1061.54,227.754C1061.83,224.46 1062.03,221.139 1062.22,217.838C1062.86,207.763 1063.52,197.67 1063.82,187.578C1064.04,179.833 1064.27,172.067 1064.19,164.318C1056.08,187.47 1048.12,210.669 1040.28,233.916L1029.4,197.701L1018.72,164.164Z" style="fill:rgb(255,0,97);fill-rule:nonzero;"/>
                    <path d="M1113.79,146.632C1112.21,150.045 1111.12,153.693 1110.71,157.44C1110.38,160.558 1110.05,163.688 1109.78,166.813C1109.54,169.517 1109.32,172.229 1109.13,174.937C1108.77,180.9 1108.45,186.876 1108.2,192.844C1107.67,205.572 1105.44,221.144 1109.01,233.578C1109.26,234.475 1109.58,235.352 1109.97,236.199L1089.47,235.384C1090.59,233.193 1091.58,230.69 1091.94,228.264C1092.32,225.724 1092.62,223.172 1092.89,220.618C1093.7,213.6 1094.14,206.507 1094.4,199.449C1094.61,193.976 1094.83,188.498 1094.97,183.023C1095.04,180.144 1095.09,177.26 1095.11,174.38C1095.25,166.112 1096.25,156.12 1093.54,148.17L1092.78,145.796L1113.79,146.632Z" style="fill:rgb(255,0,97);fill-rule:nonzero;"/>
                    <path d="M1138.56,173.647C1138.24,178.262 1137.98,182.89 1137.75,187.51C1137.33,195.936 1137.08,204.407 1136.9,212.842C1136.8,218.178 1136.37,223.763 1136.75,229.085C1136.83,230.241 1136.95,231.399 1137.17,232.538C1137.51,234.26 1138.07,235.94 1138.77,237.547L1122.85,236.773C1124.05,234.626 1124.95,232.317 1125.35,229.88C1125.71,227.624 1126.03,225.36 1126.29,223.091C1127.01,216.947 1127.36,210.735 1127.65,204.56C1128.05,195.978 1128.33,187.376 1128.38,178.784L1128.47,162.658C1128.5,158.458 1128.42,153.562 1126.15,149.879C1125.46,148.846 1124.62,147.912 1123.71,147.07L1142.65,147.98C1144.79,153.425 1147.05,158.831 1149.43,164.173L1156.82,180.18L1172.55,212.604C1172.75,209.975 1172.92,207.344 1173.08,204.712L1173.63,195.587C1174.47,181.722 1175.51,166.812 1172.46,153.138C1172.19,152.032 1171.76,150.524 1171.09,149.535L1189.41,150.598C1184.18,159.26 1184.42,173.425 1183.51,183.279C1183.27,185.959 1183.06,188.656 1182.89,191.342L1182.64,196.258L1181.14,220.117C1180.73,226.677 1180.22,233.326 1180.14,239.898L1170.53,239.308L1155.05,206.725L1138.56,173.647Z" style="fill:rgb(255,0,97);fill-rule:nonzero;"/>
                    <path d="M1239.76,213.994L1241.83,191.588C1242.59,181.962 1244.26,170.938 1242.39,161.362C1242.12,159.872 1241.62,157.899 1240.72,156.588C1240.16,155.769 1239.59,154.952 1238.98,154.161L1258.93,155.764L1257.52,157.293C1255.49,159.703 1254.22,162.631 1253.76,165.744C1253.29,168.988 1252.87,172.261 1252.51,175.518C1252.14,178.799 1251.78,182.082 1251.43,185.365C1250.84,191.487 1250.3,197.621 1249.8,203.751L1249.22,210.875C1248.48,219.882 1247.06,230.413 1240.83,237.414C1235.63,243.151 1227.64,244.369 1220.28,243.822C1200.57,242.359 1194.67,225.668 1195.9,208.095L1198.88,164.31C1199.17,159.969 1199.19,154.685 1196.34,151.105L1219.4,152.694C1216.37,155.725 1215.26,160.099 1214.97,164.243C1214.75,167.281 1214.52,170.321 1214.26,173.356L1212.69,192.042C1212.42,195.213 1212.18,198.39 1211.95,201.565C1211.44,208.767 1210.33,216.744 1211.44,223.938C1211.83,226.444 1212.41,229.187 1213.54,231.461C1215.56,235.468 1219.21,237.865 1223.68,238.2C1232.31,238.849 1236.44,230.959 1238.21,223.687C1239,220.529 1239.5,217.237 1239.76,213.994Z" style="fill:rgb(255,0,97);fill-rule:nonzero;"/>
                    <path d="M1272.72,215.757C1272.03,218.907 1271.37,222.131 1271.09,225.348C1270.89,227.585 1270.95,229.845 1271.4,232.052C1271.78,233.985 1272.44,235.85 1273.49,237.532C1275.42,240.634 1278.4,242.738 1282.08,243.076C1289.03,243.714 1292.96,239.407 1293.6,232.735C1294.33,225.037 1289.44,217.895 1284.6,212.416L1278.9,205.956C1275.24,201.838 1271.35,197.489 1268.77,192.589C1265.74,186.875 1263.82,180.252 1264.37,173.745C1264.77,169.063 1266.8,164.793 1270.41,161.737C1275.33,157.511 1281.99,156.576 1288.26,157.149C1290.15,157.321 1292.98,157.635 1294.91,158.174C1295.9,158.451 1299.05,159.327 1300.43,159.458C1302.45,159.651 1304.54,159.27 1306.1,157.882C1306.74,157.329 1307.32,156.699 1307.87,156.051C1312.64,159.248 1311.03,169.477 1310.59,174.036C1310.12,178.76 1309.53,183.913 1307.2,188.129C1306.85,188.774 1306.27,189.681 1305.5,189.965C1305.43,184.3 1303.94,178.558 1301.1,173.648C1298.35,168.877 1294.14,164.748 1288.41,164.223C1284.51,163.866 1281.19,165.471 1279.83,169.27C1279.38,170.52 1279.16,171.983 1279.04,173.289C1278.87,175.185 1279.39,177.199 1280.06,178.939C1280.93,181.229 1282.11,183.408 1283.46,185.452C1284.99,187.777 1286.71,190.011 1288.53,192.124C1292.42,196.782 1296.38,201.457 1300.07,206.277C1301.89,208.648 1303.56,211.193 1304.99,213.817C1307.6,218.712 1309.38,224.435 1308.82,230.032C1308.23,236.029 1305.05,241.113 1300.09,244.482C1294.26,248.38 1287.18,249.426 1280.3,248.797C1274.47,248.264 1268.58,246.262 1264.01,242.521C1259.56,238.886 1256.98,233.773 1257.47,227.965C1259.45,222.761 1263.46,218.904 1268.64,216.928C1269.94,216.41 1271.33,215.979 1272.72,215.757Z" style="fill:rgb(255,0,97);fill-rule:nonzero;"/>
                </g>
            </g>
            <g transform="matrix(1,0,0,1,52.4039,87)">
                <clipPath id="_clip1">
                    <rect x="301.189" y="163.654" width="277.906" height="90.967"/>
                </clipPath>
                <g clip-path="url(#_clip1)">
                    <g id="Warstwa-1" serif:id="Warstwa 1">
                        <path id="path847" d="M339.466,253.914C332.757,251.925 331.875,249.881 334.42,242.217C335.637,238.555 336.227,235.157 335.734,234.665C335.239,234.173 333.067,235.973 330.906,238.665C328.388,241.801 325.882,243.559 323.93,243.559C320.47,243.559 310.657,235.72 306.774,229.855C303.37,224.713 300.791,214.131 301.811,209.488C302.458,206.542 303.541,205.622 307.155,204.943L311.688,204.093L308.04,202.236C297.547,196.894 299.15,186.873 312.562,173.967C316.826,169.864 318.527,169.052 322.133,169.399C324.897,169.664 327.023,170.786 327.883,172.431C332.984,182.18 332.905,182.144 333.935,175.244C335.158,167.054 338.27,163.522 343.517,164.368C345.685,164.717 353.248,165.891 360.324,166.976C371.111,168.63 373.8,169.534 376.964,172.566C381.431,176.845 381.633,178.714 378.111,183.191C374.752,187.461 375.48,188.086 381.501,186.098C387.931,183.976 404.957,184.281 411.636,186.637C419.196,189.304 436.041,198.502 445.906,205.35C450.524,208.555 455.516,211.721 457,212.386C458.484,213.05 462.341,215.342 465.571,217.478C475.179,223.831 489.95,230.585 497.246,231.962C511.289,234.612 511.639,234.44 500.808,230.217C494.706,227.838 488.49,225.022 486.995,223.958C474.997,215.426 467.832,205.927 465.654,195.663C462.532,180.951 466.377,170.876 477.27,165.225C481.95,162.798 493.771,163.261 499,166.077C503.362,168.426 504.984,171.779 501.759,171.779C500.845,171.779 497.929,173.566 495.279,175.751C484.31,184.792 485.433,205.91 497.524,218.001C503.58,224.057 518.021,230.685 525.504,230.844C540.625,231.166 553.841,229.421 562.408,225.973C567.216,224.037 571.84,221.623 572.682,220.608C573.525,219.593 575.317,218.762 576.664,218.762C578.472,218.762 579.11,219.703 579.095,222.351C579.067,227.163 578.104,228.372 571.71,231.614C550.751,242.238 519.492,246.853 494.283,243.044C492.489,242.772 488.084,242.127 484.495,241.61C480.906,241.092 477.626,240.463 477.205,240.212C476.785,239.961 471.818,238.8 466.167,237.633C455.464,235.422 446.628,234.937 442.267,236.322C439.815,237.1 435.554,245.44 435.554,249.459C435.554,253.053 427.688,250.857 424.175,246.283C420.622,241.654 423.378,231.48 429.311,227.325C433.988,224.049 444.202,224.803 457.205,229.385C463.601,231.638 471.476,233.731 474.707,234.036L480.58,234.59L468.834,227.553C462.373,223.682 453.115,217.77 448.258,214.414C419.755,194.715 396.977,186.044 385.4,190.486C380.938,192.198 383.508,194.087 389.902,193.795C393.505,193.631 397.075,194.117 397.834,194.876C399.683,196.726 401.551,205.118 401.59,211.751C401.629,218.898 399.432,220.597 391.518,219.529L385.307,218.691L388.57,221.407C390.364,222.901 392.832,224.942 394.054,225.944C396.23,227.728 396.282,229.133 394.418,235.729C393.181,240.107 377.374,254 373.63,254C370.113,254 366.383,250.213 366.383,246.642C366.383,245.221 365.592,242.976 364.625,241.653C362.103,238.204 360.739,241.166 362.28,246.745C363.183,250.014 363.092,251.635 361.954,252.58C359.714,254.439 344.318,255.352 339.466,253.914ZM357.815,214.879C362.544,213.081 362.355,207.342 357.41,202.604C354.407,199.727 352.664,199.091 348.687,199.423C344.451,199.777 343.568,200.398 342.711,203.625C341.414,208.513 343.314,211.976 348.541,214.249C353.601,216.45 353.67,216.455 357.815,214.879Z" style="fill:rgb(255,0,97);fill-rule:nonzero;"/>
                    </g>
                </g>
            </g>
            <g transform="matrix(1,0,0,1,52.4039,87)">
                <clipPath id="_clip2">
                    <rect x="1344.8" y="163.654" width="277.906" height="90.967"/>
                </clipPath>
                <g clip-path="url(#_clip2)">
                    <g id="Warstwa-11" serif:id="Warstwa 1">
                        <path id="path8471" serif:id="path847" d="M1584.43,253.914C1591.14,251.925 1592.02,249.881 1589.47,242.217C1588.26,238.555 1587.67,235.157 1588.16,234.665C1588.65,234.173 1590.83,235.973 1592.99,238.665C1595.51,241.801 1598.01,243.559 1599.96,243.559C1603.42,243.559 1613.24,235.72 1617.12,229.855C1620.52,224.713 1623.1,214.131 1622.08,209.488C1621.43,206.542 1620.35,205.622 1616.74,204.943L1612.2,204.093L1615.85,202.236C1626.35,196.894 1624.74,186.873 1611.33,173.967C1607.07,169.864 1605.37,169.052 1601.76,169.399C1599,169.664 1596.87,170.786 1596.01,172.431C1590.91,182.18 1590.99,182.144 1589.96,175.244C1588.74,167.054 1585.62,163.522 1580.38,164.368C1578.21,164.717 1570.64,165.891 1563.57,166.976C1552.78,168.63 1550.09,169.534 1546.93,172.566C1542.46,176.845 1542.26,178.714 1545.78,183.191C1549.14,187.461 1548.41,188.086 1542.39,186.098C1535.96,183.976 1518.94,184.281 1512.26,186.637C1504.7,189.304 1487.85,198.502 1477.99,205.35C1473.37,208.555 1468.38,211.721 1466.89,212.386C1465.41,213.05 1461.55,215.342 1458.32,217.478C1448.71,223.831 1433.94,230.585 1426.65,231.962C1412.6,234.612 1412.25,234.44 1423.09,230.217C1429.19,227.838 1435.4,225.022 1436.9,223.958C1448.9,215.426 1456.06,205.927 1458.24,195.663C1461.36,180.951 1457.52,170.876 1446.62,165.225C1441.94,162.798 1430.12,163.261 1424.89,166.077C1420.53,168.426 1418.91,171.779 1422.13,171.779C1423.05,171.779 1425.96,173.566 1428.62,175.751C1439.58,184.792 1438.46,205.91 1426.37,218.001C1420.31,224.057 1405.87,230.685 1398.39,230.844C1383.27,231.166 1370.05,229.421 1361.49,225.973C1356.68,224.037 1352.05,221.623 1351.21,220.608C1350.37,219.593 1348.58,218.762 1347.23,218.762C1345.42,218.762 1344.78,219.703 1344.8,222.351C1344.83,227.163 1345.79,228.372 1352.18,231.614C1373.14,242.238 1404.4,246.853 1429.61,243.044C1431.4,242.772 1435.81,242.127 1439.4,241.61C1442.99,241.092 1446.27,240.463 1446.69,240.212C1447.11,239.961 1452.08,238.8 1457.73,237.633C1468.43,235.422 1477.27,234.937 1481.63,236.322C1484.08,237.1 1488.34,245.44 1488.34,249.459C1488.34,253.053 1496.21,250.857 1499.72,246.283C1503.27,241.654 1500.52,231.48 1494.58,227.325C1489.91,224.049 1479.69,224.803 1466.69,229.385C1460.29,231.638 1452.42,233.731 1449.19,234.036L1443.31,234.59L1455.06,227.553C1461.52,223.682 1470.78,217.77 1475.63,214.414C1504.14,194.715 1526.92,186.044 1538.49,190.486C1542.95,192.198 1540.39,194.087 1533.99,193.795C1530.39,193.631 1526.82,194.117 1526.06,194.876C1524.21,196.726 1522.34,205.118 1522.3,211.751C1522.26,218.898 1524.46,220.597 1532.38,219.529L1538.59,218.691L1535.32,221.407C1533.53,222.901 1531.06,224.942 1529.84,225.944C1527.66,227.728 1527.61,229.133 1529.48,235.729C1530.71,240.107 1546.52,254 1550.26,254C1553.78,254 1557.51,250.213 1557.51,246.642C1557.51,245.221 1558.3,242.976 1559.27,241.653C1561.79,238.204 1563.15,241.166 1561.61,246.745C1560.71,250.014 1560.8,251.635 1561.94,252.58C1564.18,254.439 1579.58,255.352 1584.43,253.914ZM1566.08,214.879C1561.35,213.081 1561.54,207.342 1566.48,202.604C1569.49,199.727 1571.23,199.091 1575.21,199.423C1579.44,199.777 1580.33,200.398 1581.18,203.625C1582.48,208.513 1580.58,211.976 1575.35,214.249C1570.29,216.45 1570.22,216.455 1566.08,214.879Z" style="fill:rgb(255,0,97);fill-rule:nonzero;"/>
                    </g>
                </g>
            </g>
        </g>
    </g>
</svg>
