<?xml version="1.0" encoding="UTF-8" standalone="no"?>
<svg
   xmlns:dc="http://purl.org/dc/elements/1.1/"
   xmlns:cc="http://creativecommons.org/ns#"
   xmlns:rdf="http://www.w3.org/1999/02/22-rdf-syntax-ns#"
   xmlns:svg="http://www.w3.org/2000/svg"
   xmlns="http://www.w3.org/2000/svg"
   xmlns:sodipodi="http://sodipodi.sourceforge.net/DTD/sodipodi-0.dtd"
   xmlns:inkscape="http://www.inkscape.org/namespaces/inkscape"
   sodipodi:docname="Powieść o pogromie01.svg"
   inkscape:version="1.0 (4035a4fb49, 2020-05-01)"
   id="svg8"
   version="1.1"
   viewBox="0 0 49.479839 16.196243"
   height="16.196243mm"
   width="49.479839mm">
  <defs
     id="defs2" />
  <sodipodi:namedview
     inkscape:window-maximized="1"
     inkscape:window-y="-9"
     inkscape:window-x="-9"
     inkscape:window-height="1001"
     inkscape:window-width="1920"
     showgrid="false"
     inkscape:document-rotation="0"
     inkscape:current-layer="layer1"
     inkscape:document-units="mm"
     inkscape:cy="-8.334965"
     inkscape:cx="82.106337"
     inkscape:zoom="1.4"
     inkscape:pageshadow="2"
     inkscape:pageopacity="0.0"
     borderopacity="1.0"
     bordercolor="#666666"
     pagecolor="#ffffff"
     id="base" />
  <metadata
     id="metadata5">
    <rdf:RDF>
      <cc:Work
         rdf:about="">
        <dc:format>image/svg+xml</dc:format>
        <dc:type
           rdf:resource="http://purl.org/dc/dcmitype/StillImage" />
        <dc:title></dc:title>
      </cc:Work>
    </rdf:RDF>
  </metadata>
  <g
     transform="translate(-72.526085,-129.58373)"
     id="layer1"
     inkscape:groupmode="layer"
     inkscape:label="Warstwa 1">
    <path
       id="path847"
       d="m 79.341103,145.65414 c -1.19461,-0.35418 -1.35162,-0.71815 -0.8984,-2.08267 0.21654,-0.65192 0.32174,-1.25696 0.2338,-1.34453 -0.088,-0.0876 -0.47472,0.2329 -0.859501,0.71216 -0.44827,0.55833 -0.894496,0.87138 -1.242109,0.87138 -0.615982,0 -2.363229,-1.39567 -3.054477,-2.43987 -0.606176,-0.91568 -1.065265,-2.79965 -0.883683,-3.62639 0.115186,-0.52444 0.307948,-0.68834 0.951545,-0.80908 l 0.807097,-0.15141 -0.649666,-0.33073 c -1.868178,-0.95104 -1.58273,-2.73518 0.80526,-5.03313 0.759102,-0.73048 1.062004,-0.87505 1.703971,-0.81329 0.492143,0.0473 0.870626,0.24691 1.023872,0.53986 0.908071,1.73585 0.894111,1.72936 1.077551,0.50084 0.21772,-1.45813 0.7718,-2.08707 1.706,-1.93649 0.386,0.0622 1.73259,0.27121 2.99242,0.46443 1.92045,0.29453 2.39922,0.45535 2.96269,0.99519 0.79528,0.76193 0.83118,1.09467 0.20409,1.89188 -0.59801,0.76025 -0.46838,0.87138 0.60371,0.51756 1.1448,-0.37782 4.17621,-0.32365 5.36528,0.0959 1.34599,0.47489 4.3452,2.11259 6.10174,3.33182 0.82211,0.57063 1.710907,1.13433 1.975117,1.25266 0.26421,0.11832 0.95093,0.52627 1.52604,0.90655 1.7107,1.13115 4.34055,2.33371 5.63959,2.57884 2.50037,0.4718 2.56266,0.4413 0.63419,-0.3106 -1.08641,-0.42359 -2.1931,-0.92505 -2.45933,-1.11437 -2.13623,-1.51912 -3.4118,-3.21039 -3.79963,-5.03792 -0.55586,-2.61934 0.12869,-4.41314 2.06808,-5.4192 0.83329,-0.43228 2.93795,-0.34978 3.86905,0.15165 0.77663,0.41824 1.06539,1.01509 0.4911,1.01509 -0.16258,0 -0.68177,0.31831 -1.15374,0.70735 -1.95282,1.60968 -1.75296,5.36955 0.39986,7.52238 1.07818,1.07817 3.64931,2.25837 4.9817,2.28669 2.6921,0.0572 5.04519,-0.25342 6.57053,-0.86741 0.85612,-0.34461 1.67931,-0.77443 1.8293,-0.95517 0.15,-0.18073 0.46905,-0.3286 0.709,-0.3286 0.3219,0 0.43536,0.16754 0.43273,0.63901 -0.005,0.85677 -0.17641,1.07204 -1.3149,1.64917 -3.73156,1.8916 -9.29719,2.71321 -13.78544,2.03502 -0.31951,-0.0483 -1.10375,-0.16316 -1.74276,-0.25531 -0.63901,-0.0921 -1.22305,-0.20412 -1.29787,-0.24885 -0.0748,-0.0447 -0.95918,-0.25134 -1.96526,-0.45915 -1.905747,-0.39364 -3.478927,-0.47997 -4.255417,-0.23353 -0.43642,0.13852 -1.19524,1.62346 -1.19524,2.33898 0,0.63992 -1.4005,0.24899 -2.02582,-0.56548 -0.63272,-0.82409 -0.14204,-2.63544 0.91436,-3.37536 0.83267,-0.58323 2.65124,-0.44891 4.966427,0.36682 1.13873,0.40122 2.54095,0.77386 3.11606,0.82809 l 1.04566,0.0986 -2.09131,-1.25291 c -1.15022,-0.6891 -2.798717,-1.74182 -3.663337,-2.33937 -5.07485,-3.5073 -9.13049,-5.05109 -11.19167,-4.26014 -0.79437,0.30483 -0.3369,0.6411 0.8015,0.58916 0.64161,-0.0293 1.27713,0.0573 1.41227,0.19247 0.32936,0.32936 0.66193,1.82345 0.66876,3.00439 0.007,1.27264 -0.38421,1.57505 -1.7932,1.38491 l -1.10585,-0.14923 0.58092,0.48355 c 0.3195,0.26596 0.75892,0.6295 0.97648,0.80788 0.38738,0.31762 0.39668,0.56767 0.0648,1.74205 -0.22032,0.77955 -3.03467,3.25315 -3.70129,3.25315 -0.62618,0 -1.29022,-0.67422 -1.29022,-1.31 0,-0.25307 -0.14089,-0.65279 -0.31309,-0.88829 -0.44901,-0.61406 -0.69175,-0.0868 -0.41743,0.90664 0.16067,0.5819 0.14452,0.87064 -0.0581,1.0388 -0.39883,0.33099 -3.14008,0.49365 -4.0038,0.23757 z m 3.26689,-6.95 c 0.84207,-0.32016 0.80835,-1.34198 -0.0721,-2.18552 -0.53467,-0.51225 -0.84498,-0.6254 -1.55311,-0.56631 -0.75416,0.0629 -0.91139,0.17348 -1.06391,0.74808 -0.23102,0.87029 0.10724,1.4868 1.0379,1.89163 0.90088,0.39187 0.91322,0.39271 1.65124,0.11212 z"
       style="fill:#000000;stroke-width:0.232368" />
  </g>
</svg>
