<?xml version="1.0" encoding="UTF-8" standalone="no"?>
<!-- Creator: CorelDRAW X7 -->

<svg
   xmlns:dc="http://purl.org/dc/elements/1.1/"
   xmlns:cc="http://creativecommons.org/ns#"
   xmlns:rdf="http://www.w3.org/1999/02/22-rdf-syntax-ns#"
   xmlns:svg="http://www.w3.org/2000/svg"
   xmlns="http://www.w3.org/2000/svg"
   xmlns:sodipodi="http://sodipodi.sourceforge.net/DTD/sodipodi-0.dtd"
   xmlns:inkscape="http://www.inkscape.org/namespaces/inkscape"
   xml:space="preserve"
   width="212mm"
   height="50mm"
   version="1.1"
   style="clip-rule:evenodd;fill-rule:evenodd;image-rendering:optimizeQuality;shape-rendering:geometricPrecision;text-rendering:geometricPrecision"
   viewBox="0 0 18990.162 4479.1443"
   id="svg10"
   sodipodi:docname="scroll-91.svg"
   inkscape:version="0.92.3 (2405546, 2018-03-11)"><title
   id="title16">Tibetan border 02</title><metadata
   id="metadata14"><rdf:RDF><cc:Work
       rdf:about=""><dc:format>image/svg+xml</dc:format><dc:type
         rdf:resource="http://purl.org/dc/dcmitype/StillImage" /><dc:title>Tibetan border 02</dc:title><cc:license
         rdf:resource="http://creativecommons.org/licenses/by-sa/4.0/" /><dc:date>2015-06-24</dc:date><dc:creator><cc:Agent><dc:title>Christopher J. Fynn</dc:title></cc:Agent></dc:creator><dc:rights><cc:Agent><dc:title>Christopher J. Fynn</dc:title></cc:Agent></dc:rights><dc:publisher><cc:Agent><dc:title>Christopher J. Fynn</dc:title></cc:Agent></dc:publisher><dc:description>A traditional Tibetan border design</dc:description><dc:contributor><cc:Agent><dc:title>Christopher J. Fynn</dc:title></cc:Agent></dc:contributor></cc:Work><cc:License
       rdf:about="http://creativecommons.org/licenses/by-sa/4.0/"><cc:permits
         rdf:resource="http://creativecommons.org/ns#Reproduction" /><cc:permits
         rdf:resource="http://creativecommons.org/ns#Distribution" /><cc:requires
         rdf:resource="http://creativecommons.org/ns#Notice" /><cc:requires
         rdf:resource="http://creativecommons.org/ns#Attribution" /><cc:permits
         rdf:resource="http://creativecommons.org/ns#DerivativeWorks" /><cc:requires
         rdf:resource="http://creativecommons.org/ns#ShareAlike" /></cc:License></rdf:RDF></metadata><sodipodi:namedview
   pagecolor="#ffffff"
   bordercolor="#666666"
   borderopacity="1"
   objecttolerance="10"
   gridtolerance="10"
   guidetolerance="10"
   inkscape:pageopacity="0"
   inkscape:pageshadow="2"
   inkscape:window-width="1920"
   inkscape:window-height="1001"
   id="namedview12"
   showgrid="false"
   showborder="false"
   inkscape:zoom="1.4387757"
   inkscape:cx="374.81943"
   inkscape:cy="69.54197"
   inkscape:window-x="-9"
   inkscape:window-y="-9"
   inkscape:window-maximized="1"
   inkscape:current-layer="svg10" />
 <defs
   id="defs4"><style
     type="text/css"
     id="style2">
   <![CDATA[
    .fil0 {fill:black}
   ]]>
  </style></defs>
 <g
   id="Layer_x0020_1"
   transform="translate(24.997376,58.068409)">
  <metadata
   id="CorelCorpID_0Corel-Layer" />
  <path
   class="fil0"
   d="m 17122,1711 c -4,276 131,421 320,586 -311,47 -690,353 -674,797 11,311 306,617 626,608 258,-7 493,-193 503,-459 7,-170 -92,-311 -274,-308 -64,0 -116,30 -118,102 -5,143 122,136 120,203 -2,98 -158,177 -248,172 -152,-8 -308,-173 -308,-326 1,-342 276,-538 600,-542 398,-4 645,341 647,711 4,501 -407,760 -874,769 -725,12 -727,-576 -967,-1026 -213,-397 -692,-729 -1130,-803 -212,-35 -412,-14 -596,-21 -277,-356 -1083,-504 -1508,-518 -447,-15 -815,43 -1244,158 -632,-512 -791,-498 -1598,-492 -216,1 -625,-3 -774,-190 -14,-17 -49,-128 -71,-198 -15,-50 -17,-163 -79,-167 -62,-4 -92,108 -111,160 -20,52 -55,179 -84,218 -148,204 -646,152 -854,147 -406,-9 -1282,119 -1498,527 -89,-3 -781,-202 -1463,-132 -654,67 -838,253 -1380,494 -190,-1 -345,-10 -537,23 -180,30 -384,94 -584,224 -268,175 -460,423 -590,713 -137,308 -214,582 -411,741 -124,99 -294,153 -556,143 -411,-17 -744,-270 -784,-693 -42,-451 244,-767 707,-764 274,1 533,269 531,526 -2,173 -132,335 -311,340 -130,3 -248,-80 -248,-193 34,0 54,4 73,-1 55,-14 89,-88 88,-141 -2,-76 -55,-148 -146,-145 -201,7 -296,167 -292,337 7,282 262,435 513,438 367,6 619,-328 615,-675 -5,-393 -228,-661 -595,-766 134,-93 267,-229 255,-576 -3,-75 -16,-150 -40,-217 -71,-203 -264,-368 -517,-413 -40,-7 -80,-10 -133,-12 -69,-3 -128,22 -179,22 -25,0 -45,-14 -60,-34 -37,-47 -75,-114 -78,-214 -4,-107 96,-176 207,-176 61,0 149,49 141,122 -3,26 -24,47 -51,43 -7,-1 -15,-2 -24,-4 -20,-74 -213,-97 -213,61 0,110 113,154 211,152 173,-4 289,-138 272,-307 -13,-117 -121,-258 -248,-257 -28,0 -57,6 -92,14 42,-39 70,-101 70,-170 C 1079,160 917,30 761,36 623,40 505,147 496,294 c -8,129 79,195 167,191 40,-2 82,-19 114,-53 58,-60 21,-142 -49,-158 15,-22 32,-31 49,-31 44,1 86,61 86,123 0,28 -9,56 -29,80 -60,68 -141,110 -200,184 -56,70 -79,147 -78,225 2,95 42,191 105,277 13,18 29,38 39,56 -84,44 -142,109 -182,193 -28,59 -41,31 -79,21 0,-61 44,-45 43,-124 0,-50 -30,-86 -65,-101 -99,-42 -181,22 -217,85 -85,154 18,386 211,386 0,275 170,486 450,488 141,1 314,-78 311,-242 -2,-87 -67,-165 -188,-165 -75,-1 -131,55 -133,128 -113,0 -146,-62 -143,-163 7,-216 235,-356 433,-354 203,2 377,206 386,401 10,249 -224,406 -425,504 -75,36 -147,62 -237,107 -31,15 -62,33 -94,54 -62,-129 -225,-253 -375,-256 -189,-4 -407,164 -396,367 8,136 70,285 225,295 92,6 206,-51 209,-154 3,-94 -48,-131 -134,-140 -10,-1 -16,-13 -14,-27 3,-45 55,-61 94,-58 72,4 126,76 126,168 0,29 -5,59 -14,90 -78,251 -181,362 -165,653 33,620 510,1021 1121,1019 279,-1 479,-67 635,-179 262,-188 396,-507 565,-866 154,-329 220,-464 545,-641 124,-67 264,-123 401,-158 197,-51 347,-52 545,-17 528,-170 713,-418 1363,-498 419,-51 1147,-22 1535,169 346,-446 819,-601 1391,-567 326,20 590,37 896,-115 50,-25 95,-53 131,-85 53,36 88,67 152,95 269,121 550,112 837,115 657,8 1020,-8 1425,565 380,-156 952,-231 1352,-218 831,27 891,207 1530,542 175,-48 364,-29 542,1 341,57 781,323 916,655 260,638 389,1145 1235,1132 606,-9 1165,-356 1158,-1008 -1,-154 -46,-416 -127,-551 -32,-51 -48,-107 -49,-157 -4,-96 47,-158 146,-170 48,-6 77,19 80,50 3,27 -14,58 -58,72 -59,19 -93,58 -80,124 16,83 76,132 161,133 186,2 279,-162 264,-326 -15,-163 -137,-325 -378,-324 -229,1 -302,79 -394,251 -11,-2 -103,-68 -126,-82 -102,-61 -211,-94 -312,-140 -229,-104 -323,-236 -320,-479 2,-191 215,-371 407,-370 180,2 403,141 403,349 0,114 -42,177 -161,177 0,-90 -64,-142 -134,-144 -102,-4 -170,92 -165,188 10,159 165,225 308,226 298,1 437,-213 437,-492 154,0 258,-117 252,-268 -5,-151 -139,-260 -251,-187 -28,18 -59,61 -66,101 -8,48 55,99 55,106 -1,15 -41,19 -49,19 -10,0 -14,-6 -17,-12 -35,-65 -142,-203 -204,-219 72,-108 139,-237 141,-369 2,-145 -82,-227 -172,-301 -62,-50 -137,-93 -134,-185 3,-68 72,-108 133,-105 42,3 65,39 63,57 -5,14 -46,-11 -84,-10 -20,1 -54,40 -54,58 -1,81 81,136 161,137 79,1 157,-50 157,-178 -1,-127 -62,-204 -180,-248 -30,-11 -66,-16 -98,-16 -36,0 -71,11 -104,23 -103,37 -214,147 -208,266 5,92 24,94 38,152 -36,0 -74,9 -109,23 -116,47 -192,159 -199,284 -8,153 121,264 266,273 94,6 201,-39 220,-143 13,-70 -39,-129 -102,-129 -94,0 -108,57 -138,57 -15,0 -42,-30 -42,-67 0,-59 80,-109 142,-109 135,0 197,81 204,175 3,53 -12,110 -42,158 -42,67 -61,103 -101,109 -38,6 -110,-20 -152,-23 -365,-30 -703,299 -708,662 z m 860,-1199 2,-1 c 0,0 -2,0 -2,1 z m 15,-204 c 0,123 93,175 163,230 67,53 145,133 145,249 0,161 -165,345 -157,388 2,11 13,20 36,30 124,50 190,244 244,244 57,0 128,-19 128,-81 0,-32 -52,-69 -55,-91 -4,-29 37,-75 74,-75 69,0 118,74 118,147 0,171 -94,214 -251,214 0,259 -68,489 -376,489 -130,-1 -245,-65 -245,-167 0,-65 29,-128 90,-128 131,0 52,147 128,147 164,0 244,-80 241,-246 -4,-235 -262,-403 -468,-403 -227,0 -465,213 -465,440 0,262 124,426 358,529 109,47 250,98 330,147 59,37 123,85 132,126 h 24 c 42,-180 172,-306 361,-302 227,3 323,142 329,277 6,128 -71,252 -196,252 -56,0 -101,-18 -111,-81 -4,-20 1,-38 15,-48 15,-10 30,-14 45,-19 57,-17 84,-73 78,-126 -7,-58 -56,-112 -154,-103 -130,11 -203,119 -196,243 9,175 184,364 181,695 -6,631 -511,932 -1099,949 -869,25 -872,-524 -1181,-1098 -196,-364 -527,-607 -935,-686 -158,-30 -418,-64 -571,-4 -580,-369 -791,-521 -1535,-546 -460,-16 -891,64 -1325,207 -349,-441 -484,-488 -1073,-534 -121,-10 -262,-15 -388,-15 -275,0 -620,-3 -860,-142 -50,-29 -78,-62 -121,-90 -40,26 -60,59 -119,90 -347,182 -542,140 -908,130 -934,-24 -1244,348 -1405,548 -422,-162 -1092,-209 -1532,-150 -663,89 -816,311 -1350,501 -242,-20 -314,-51 -563,15 -144,38 -296,99 -431,173 -337,185 -394,325 -550,652 -172,362 -292,675 -554,854 -139,94 -317,151 -564,158 -592,16 -1060,-348 -1090,-959 -14,-280 116,-444 162,-629 10,-40 16,-80 16,-122 0,-108 -82,-214 -187,-214 -105,0 -149,57 -153,111 -4,50 19,98 42,98 57,0 104,-11 104,71 0,55 -69,99 -132,99 -113,0 -180,-122 -180,-237 0,-163 163,-303 319,-303 163,0 354,152 358,308 44,-50 97,-87 158,-118 101,-50 164,-67 237,-102 216,-103 465,-298 456,-558 -9,-231 -209,-461 -448,-460 -239,2 -493,160 -493,420 0,145 68,216 218,216 16,-1 33,-2 50,-3 -2,-8 -3,-20 -3,-58 0,-46 34,-67 73,-67 57,-1 126,40 126,109 0,137 -155,176 -265,176 -303,0 -427,-341 -356,-489 l -57,5 c -104,0 -204,-84 -204,-185 v -28 c 0,-65 50,-152 109,-152 h 29 c 35,0 61,35 53,67 -11,40 -44,42 -44,104 0,55 129,140 188,22 12,-24 38,-70 53,-89 51,-63 95,-80 167,-118 -16,-70 -171,-204 -171,-369 0,-256 309,-269 309,-484 0,-87 -62,-175 -147,-175 -63,0 -124,65 -124,123 0,25 79,-9 95,52 15,58 -66,62 -118,62 -48,0 -71,-67 -71,-118 0,-108 98,-209 208,-209 121,0 261,113 261,232 0,105 -39,129 -81,209 28,-2 48,-14 81,-14 126,0 269,104 269,222 0,155 -83,252 -217,252 -115,5 -166,-31 -160,-108 2,-29 22,-59 51,-59 81,0 51,62 109,62 217,0 130,-284 -52,-284 -144,0 -280,82 -280,238 0,84 42,193 96,257 24,29 51,50 89,50 41,0 86,-20 152,-20 201,0 332,46 481,164 94,73 187,243 187,410 0,264 -88,453 -298,578 -15,9 -69,37 -76,48 452,10 715,321 715,768 0,288 -253,577 -553,568 -205,-6 -452,-114 -452,-360 0,-142 58,-296 227,-293 67,0 91,45 88,88 -2,37 -23,73 -51,79 -23,4 -50,-2 -71,1 -22,3 -38,15 -39,54 -1,15 0,33 4,56 20,123 175,205 302,205 204,0 370,-193 370,-398 0,-301 -274,-593 -574,-593 -518,0 -826,336 -778,842 42,442 412,736 854,736 272,0 452,-57 579,-152 230,-171 292,-463 426,-761 128,-282 326,-534 589,-702 141,-91 331,-170 546,-208 184,-33 342,-22 526,-21 549,-169 656,-421 1392,-492 655,-64 1328,103 1488,132 137,-348 891,-514 1432,-526 247,-5 779,65 937,-183 32,-49 61,-159 82,-221 20,-55 43,-115 52,-122 11,44 21,86 32,128 17,61 38,159 74,209 149,208 606,218 833,218 857,0 919,-17 1565,499 472,-127 774,-163 1269,-163 474,0 1167,165 1508,524 198,-7 398,-14 595,17 408,65 899,407 1078,767 250,503 263,1063 1025,1056 500,-5 929,-297 927,-826 -1,-424 -271,-775 -720,-775 -349,0 -644,243 -644,602 0,188 174,389 360,389 139,0 313,-89 313,-247 0,-97 -119,-76 -119,-184 0,-31 25,-47 60,-49 146,-6 210,119 210,248 0,235 -226,395 -445,403 -281,9 -536,-284 -546,-556 -18,-512 362,-665 778,-762 l -75,-43 c -206,-117 -366,-317 -366,-564 0,-335 307,-636 640,-611 61,4 114,25 164,23 94,-3 105,-66 145,-130 39,-62 57,-131 54,-196 -6,-127 -92,-236 -258,-236 -106,0 -209,81 -209,180 0,49 52,118 100,118 60,0 88,-71 146,-57 35,9 45,36 36,64 -13,44 -68,92 -144,91 -112,0 -230,-95 -222,-217 7,-97 79,-198 175,-231 69,-23 107,-19 174,-10 -5,-71 -75,-107 -75,-232 0,-100 143,-213 241,-213 115,0 229,65 228,191 0,65 -28,131 -104,131 -37,0 -92,-31 -94,-74 -1,-14 11,-26 46,-26 9,0 25,23 43,16 9,-4 28,-20 28,-39 0,-44 -42,-100 -103,-107 -92,-10 -195,51 -195,154 z"
   id="path7"
   inkscape:connector-curvature="0"
   style="fill:#000000" />
 </g>
</svg>