<?xml version="1.0" encoding="UTF-8" standalone="no"?>
<!-- Created with Inkscape (http://www.inkscape.org/) -->

<svg
   xmlns:dc="http://purl.org/dc/elements/1.1/"
   xmlns:cc="http://creativecommons.org/ns#"
   xmlns:rdf="http://www.w3.org/1999/02/22-rdf-syntax-ns#"
   xmlns:svg="http://www.w3.org/2000/svg"
   xmlns="http://www.w3.org/2000/svg"
   xmlns:sodipodi="http://sodipodi.sourceforge.net/DTD/sodipodi-0.dtd"
   xmlns:inkscape="http://www.inkscape.org/namespaces/inkscape"
   id="svg2985"
   version="1.1"
   inkscape:version="0.48.0 r9654"
   width="161.91914"
   height="11.895566"
   sodipodi:docname="page34-752px-Sbornik_zakonov_1938-1956.djvu.jpg">
  <metadata
     id="metadata2991">
    <rdf:RDF>
      <cc:Work
         rdf:about="">
        <dc:format>image/svg+xml</dc:format>
        <dc:type
           rdf:resource="http://purl.org/dc/dcmitype/StillImage" />
        <dc:title></dc:title>
      </cc:Work>
    </rdf:RDF>
  </metadata>
  <defs
     id="defs2989" />
  <sodipodi:namedview
     pagecolor="#ffffff"
     bordercolor="#666666"
     borderopacity="1"
     objecttolerance="10"
     gridtolerance="10"
     guidetolerance="10"
     inkscape:pageopacity="0"
     inkscape:pageshadow="2"
     inkscape:window-width="1680"
     inkscape:window-height="970"
     id="namedview2987"
     showgrid="false"
     fit-margin-top="0"
     fit-margin-left="0"
     fit-margin-right="0"
     fit-margin-bottom="0"
     inkscape:zoom="7.8055323"
     inkscape:cx="83.55466"
     inkscape:cy="2.6427612"
     inkscape:window-x="0"
     inkscape:window-y="0"
     inkscape:window-maximized="1"
     inkscape:current-layer="svg2985" />
  <path
     id="path3001"
     style="fill:#000000"
     d="m 153.70957,0.00452344 c 5.22311,0.23201 11.03029,4.29260996 6.6875,9.09374996 -5.24988,5.1245996 -7.36599,-3.64528 -10.46875,-5.6875 -9.93889,0.64177 -19.70661,2.97093 -29.3125,5.53125 -6.59545,2.2027296 1.98826,-4.2312 -1.9375,-4.25 -6.29791,1.88425 -12.40258,4.48632 -18.937501,5.5937496 -6.17487,1.29319 -12.4976,1.82441 -18.78125,1.53125 l 0,-4.4687496 c 4.47865,0.0487 8.97802,-0.0293 13.4375,-0.125 9.771271,0.0589 19.198931,-2.67117 28.187501,-6.28124996 6.37655,-2.96080004 -4.59388,6.75137996 0.9375,5.34374996 9.51204,-2.78635 18.9728,-5.82946996 29.15625,-6.24999996 0.33989,-0.0194 0.68304,-0.0467 1.03125,-0.0312 z m 2.1875,3.49999996 c -0.76361,0.0985 -1.41687,0.70619 -1.65625,2.1875 -0.0239,1.2121 1.2712,2.03325 2.375,2.03125 4.74892,-0.0964 1.57207,-4.51438 -0.71875,-4.21875 z M 8.2095694,0.00452344 c -5.22311,0.23201 -11.03029,4.29260996 -6.6875,9.09374996 5.24988,5.1245996 7.36599,-3.64528 10.4687496,-5.6875 9.93889,0.64177 19.70661,2.97093 29.3125,5.53125 6.59545,2.2027296 -1.98826,-4.2312 1.9375,-4.25 6.29791,1.88425 12.40258,4.48632 18.9375,5.5937496 6.17487,1.29319 12.4976,1.82441 18.78125,1.53125 l 0,-4.4687496 c -4.47865,0.0487 -8.97802,-0.0293 -13.4375,-0.125 -9.77127,0.0589 -19.19893,-2.67117 -28.1875,-6.28124996 -6.37655,-2.96080004 4.59388,6.75137996 -0.9375,5.34374996 -9.51204,-2.78635 -18.9728,-5.82946996 -29.1562496,-6.24999996 -0.33989,-0.0194 -0.68304,-0.0467 -1.03125,-0.0312 z m -2.1875,3.49999996 c 0.76361,0.0985 1.41687,0.70619 1.65625,2.1875 0.0239,1.2121 -1.2712,2.03325 -2.375,2.03125 -4.74891997,-0.0964 -1.57207,-4.51438 0.71875,-4.21875 z"
     inkscape:connector-curvature="0" />
</svg>
