<?xml version="1.0" encoding="UTF-8" standalone="no"?>
<svg xmlns="http://www.w3.org/2000/svg" width="425" height="115">
  <path stroke="#000" stroke-linecap="round" stroke-linejoin="round" d="M167.51178.84063c-36.13001.8986-69.869828 27.376-72.374998 29.4063-46.751784 37.8881-74.628964 32.7075-85.6875041 19.5312-11.0585301-13.1763-5.27532-34.3507 15.3437501-28.4062C.6331579 9.86323-4.8910322 38.37123 5.8867779 51.77813 18.715718 67.73643 51.947508 73.44755 98.699282 35.55943c2.505168-2.0303 32.682488-30.0077 68.812498-30.9063 13.49611-.3356 28.38647 1.8878 42.09375 8.2813-6.75277 3.8235-13.13869 8.62-18.75 14.5-43.65716-22.7387-94.236548 15.8214-70.21875 43.81252-23.047448-27.25972 34.04054-59.69532 68.4375-41.90632-11.86231 13.322-19.86996 31.8318-20 56.53132 2.64848-24.87842 11.00089-42.75162 22.3125-55.28132 7.56963 4.3708 13.93601 9.987 19.0625 16.1875-22.934 28.62452-17.74293 67.40632 2.0625 67.40632s24.9965-38.7818 2.0625-67.40632c5.13153-6.2061 11.48328-11.8152 19.0625-16.1875 11.30827 12.5294 19.66453 30.4077 22.3125 55.28132-.13004-24.69952-8.13769-43.20932-20-56.53132 34.57765-17.8642 92.06803 15.0019 68.0625 42.34382 24.9349-28.02722-25.95483-67.09082-69.84375-44.21882-5.61294-5.888-11.99287-10.703-18.75-14.5312 13.70071-6.385 28.60547-8.6167 42.09375-8.2813 36.13001.8986 66.30733 28.876 68.8125 30.9063 46.75178 37.88812 79.95232 32.177 92.78125 16.2187 10.77782-13.4069 5.28487-41.9149-18.875-30.4062 20.61907-5.9445 26.40229 15.2299 15.34375 28.4062-11.05854 13.1763-38.96697 18.3569-85.71875-19.5312-2.50517-2.0303-36.21374-28.5077-72.34375-29.4063-13.85414-.3445-30.17012 2.8535-45 10.5313-14.83239-7.6814-31.14292-10.8759-45-10.5313zm45 13.5313c6.92737 3.5812 13.4946 8.2774 19.34375 14.3125-7.7868 4.4032-14.19034 9.7833-19.34375 15.6562-5.15341-5.8729-11.55695-11.253-19.34375-15.6562 5.84972-6.0356 12.41564-10.7311 19.34375-14.3125zm-.0312 35.0312c19.19124 25.45622 18.93112 58.96882.0312 58.96882-18.89606 0-19.2108-33.5145-.0312-58.96882z"/>
</svg>